<?xml version="1.0" standalone="no"?>
<!DOCTYPE svg PUBLIC "-//W3C//DTD SVG 20010904//EN"
 "http://www.w3.org/TR/2001/REC-SVG-20010904/DTD/svg10.dtd">
<svg version="1.0" xmlns="http://www.w3.org/2000/svg"
 width="300.000000pt" height="300.000000pt" viewBox="0 0 300.000000 300.000000"
 preserveAspectRatio="xMidYMid meet">

<g transform="translate(0.000000,300.000000) scale(0.100000,-0.100000)"
fill="#000000" stroke="none">
<path d="M1460 1626 l0 -44 -44 5 c-36 4 -47 1 -65 -18 -18 -19 -21 -33 -19
-78 3 -46 7 -57 31 -75 27 -20 29 -20 57 -4 17 10 32 13 35 7 4 -5 13 -9 21
-9 11 0 14 23 14 130 0 109 -2 130 -15 130 -11 0 -15 -12 -15 -44z m-18 -73
c18 -16 24 -68 10 -89 -4 -6 -18 -17 -31 -24 -22 -11 -27 -10 -43 10 -22 27
-23 68 -2 98 18 26 41 28 66 5z"/>
<path d="M2310 1540 l0 -129 33 1 c19 1 39 -2 45 -6 21 -13 63 14 78 51 18 41
13 87 -13 115 -18 20 -73 24 -91 6 -9 -9 -12 0 -12 40 0 45 -3 52 -20 52 -19
0 -20 -7 -20 -130z m118 8 c15 -15 16 -72 2 -99 -12 -21 -50 -25 -68 -7 -7 7
-12 30 -12 53 0 46 13 65 45 65 12 0 26 -5 33 -12z"/>
<path d="M918 1631 c-27 -24 -32 -36 -35 -87 -5 -77 18 -118 77 -135 52 -16
113 -3 118 25 3 15 0 17 -14 11 -84 -36 -144 -1 -144 83 0 35 6 57 22 77 20
26 25 27 80 22 44 -4 58 -2 58 8 0 18 -23 25 -81 25 -39 0 -55 -5 -81 -29z"/>
<path d="M1857 1654 c-4 -4 -7 -61 -7 -126 0 -111 1 -118 20 -118 18 0 20 7
20 55 l0 55 55 0 55 0 0 -55 c0 -49 2 -55 20 -55 20 0 20 5 18 123 -3 100 -6
122 -18 122 -11 0 -16 -14 -18 -52 l-3 -53 -54 0 -54 0 -3 52 c-3 48 -15 68
-31 52z"/>
<path d="M680 1595 l0 -55 50 0 50 0 0 55 0 55 -50 0 -50 0 0 -55z"/>
<path d="M1140 1568 c-14 -15 -20 -35 -20 -66 0 -57 12 -78 55 -92 67 -22 120
28 111 105 -6 50 -35 75 -87 75 -26 0 -44 -7 -59 -22z m94 -14 c9 -9 16 -32
16 -54 0 -64 -52 -94 -84 -48 -44 63 17 154 68 102z"/>
<path d="M1566 1571 c-22 -24 -30 -79 -17 -114 13 -34 67 -59 110 -51 47 10
40 33 -7 27 -28 -4 -43 0 -55 12 -32 32 -21 45 38 45 53 0 55 1 55 28 0 15 -7
38 -16 50 -20 29 -83 31 -108 3z m78 -17 c25 -25 19 -34 -24 -34 -41 0 -52 14
-28 38 16 16 33 15 52 -4z"/>
<path d="M2100 1510 c0 -74 2 -81 25 -96 22 -15 27 -15 57 0 21 11 34 13 36 6
2 -5 10 -10 18 -10 11 0 14 19 14 90 0 73 -3 90 -15 90 -12 0 -15 -13 -15 -55
0 -46 -4 -60 -25 -80 -13 -14 -29 -25 -34 -25 -19 0 -31 39 -31 99 0 48 -3 61
-15 61 -12 0 -15 -16 -15 -80z"/>
<path d="M550 1465 l0 -55 50 0 50 0 0 55 0 55 -50 0 -50 0 0 -55z"/>
<path d="M670 1465 l0 -55 60 0 60 0 0 55 0 55 -60 0 -60 0 0 -55z"/>
<path d="M1740 1430 c0 -15 7 -20 25 -20 18 0 25 5 25 20 0 15 -7 20 -25 20
-18 0 -25 -5 -25 -20z"/>
</g>
</svg>
