<?xml version="1.0" standalone="no"?>
<!DOCTYPE svg PUBLIC "-//W3C//DTD SVG 20010904//EN"
 "http://www.w3.org/TR/2001/REC-SVG-20010904/DTD/svg10.dtd">
<svg version="1.0" xmlns="http://www.w3.org/2000/svg"
 width="1537.000000pt" height="355.000000pt" viewBox="0 0 1537.000000 355.000000"
 preserveAspectRatio="xMidYMid meet">

<g transform="translate(0.000000,355.000000) scale(0.100000,-0.100000)"
fill="#000000" stroke="none">
<path d="M7290 2404 l0 -376 -52 47 c-92 83 -206 125 -340 125 -216 0 -380
-106 -481 -310 -75 -153 -92 -233 -91 -435 1 -191 16 -271 76 -393 40 -81 129
-178 196 -215 140 -76 344 -76 486 1 61 33 135 104 175 168 l31 48 0 -122 0
-122 125 0 125 0 0 980 0 980 -125 0 -125 0 0 -376z m-179 -432 c35 -17 90
-52 122 -78 l57 -46 0 -313 0 -313 -71 -66 c-41 -36 -104 -81 -147 -103 -72
-37 -79 -38 -176 -38 -111 0 -139 9 -195 66 -92 91 -137 300 -111 514 15 127
43 214 95 290 32 48 52 66 105 93 63 33 68 34 161 30 83 -3 104 -8 160 -36z"/>
<path d="M13682 1793 l3 -988 107 -3 c121 -3 108 -13 128 99 l12 66 50 -49
c87 -85 203 -128 345 -128 147 0 264 48 363 150 143 146 221 392 207 650 -18
326 -168 548 -405 599 -109 23 -253 6 -344 -40 -53 -27 -141 -110 -184 -174
l-34 -50 0 428 0 427 -125 0 -125 0 2 -987z m742 176 c45 -13 121 -79 145
-129 75 -148 86 -426 25 -609 -63 -188 -156 -257 -335 -250 -71 3 -95 9 -149
36 -36 18 -91 54 -122 79 l-58 47 0 312 0 312 53 50 c69 65 155 122 220 144
59 21 163 24 221 8z"/>
<path d="M3715 2693 c-48 -7 -146 -33 -205 -54 -228 -84 -406 -299 -476 -578
-83 -327 -34 -690 126 -940 116 -180 284 -288 520 -332 85 -16 345 -16 440 0
92 16 236 62 310 99 l55 27 3 113 c1 61 1 112 -1 112 -3 0 -52 -23 -110 -50
-162 -78 -270 -103 -447 -104 -133 0 -151 2 -225 27 -139 49 -240 131 -316
257 -85 143 -114 283 -106 517 5 188 25 272 94 412 105 212 261 302 522 302
168 0 278 -22 505 -101 33 -11 63 -20 68 -20 5 0 7 55 6 122 l-3 123 -75 17
c-159 38 -340 58 -500 56 -85 0 -168 -3 -185 -5z"/>
<path d="M1450 2220 l0 -440 445 0 445 0 0 440 0 440 -445 0 -445 0 0 -440z"/>
<path d="M10237 2653 c-4 -3 -7 -417 -7 -920 l0 -913 135 0 135 0 0 435 0 435
435 0 435 0 0 -435 0 -435 130 0 130 0 0 920 0 920 -130 0 -130 0 0 -385 0
-385 -435 0 -435 0 0 385 0 385 -128 0 c-71 0 -132 -3 -135 -7z"/>
<path d="M5260 2190 c-261 -54 -421 -227 -482 -520 -16 -76 -19 -119 -15 -215
9 -201 70 -364 180 -481 115 -124 233 -173 432 -181 286 -12 491 103 597 336
161 351 56 825 -217 986 -23 13 -78 36 -121 51 -66 22 -100 27 -204 30 -69 2
-145 -1 -170 -6z m307 -213 c147 -76 216 -230 216 -482 0 -200 -43 -337 -134
-425 -64 -62 -119 -84 -226 -88 -143 -7 -237 37 -306 141 -125 189 -125 560 0
745 70 103 159 144 303 139 80 -3 103 -8 147 -30z"/>
<path d="M8395 2190 c-274 -55 -457 -310 -472 -655 -10 -232 57 -412 211 -566
80 -81 190 -141 301 -164 136 -29 325 -15 518 36 l77 21 0 98 0 99 -71 -24
c-208 -71 -412 -74 -543 -8 -131 66 -212 197 -239 385 l-6 38 432 2 432 3 -2
120 c-4 333 -142 553 -384 610 -68 16 -188 18 -254 5z m225 -201 c58 -26 96
-63 125 -119 24 -47 45 -139 45 -197 l0 -33 -305 0 -304 0 5 33 c31 187 92
281 207 324 54 20 175 16 227 -8z"/>
<path d="M12092 1638 c3 -477 6 -539 22 -588 39 -121 131 -212 250 -246 72
-20 196 -15 271 11 99 34 205 113 283 210 l32 40 0 -123 0 -122 125 0 125 0 0
675 0 675 -125 0 -125 0 0 -439 0 -439 -44 -59 c-100 -132 -202 -203 -327
-225 -68 -12 -124 1 -170 39 -65 55 -64 45 -67 611 l-3 512 -125 0 -125 0 3
-532z"/>
<path d="M470 1240 l0 -440 445 0 445 0 0 440 0 440 -445 0 -445 0 0 -440z"/>
<path d="M1450 1240 l0 -440 445 0 445 0 0 440 0 440 -445 0 -445 0 0 -440z"/>
<path d="M9440 975 l0 -155 155 0 155 0 0 155 0 155 -155 0 -155 0 0 -155z"/>
</g>
</svg>
